<?xml version="1.0" encoding="UTF-8"?>
<svg id="Calque_2" data-name="Calque 2" xmlns="http://www.w3.org/2000/svg" viewBox="0 0 1138 591">
  <defs>
    <style>
      .cls-1 {
        fill: #fff;
      }
    </style>
  </defs>
  <g id="buildings">
    <g>
      <rect class="cls-1" y="578" width="1138" height="13"/>
      <path class="cls-1" d="M47,561v-132h135.5c1.57,0,7.95,2.32,9.85,3.15,12.15,5.3,15.88,15.73,16.7,28.3,1.27,19.69,1.46,50.51,0,70.09-.94,12.51-5.28,22.63-17.37,27.63-1.67.69-7.91,2.83-9.17,2.83H47ZM78,538h89.5c5.1,0,9.76-6.79,10.41-11.59,1.34-9.85,1.53-55.51-.36-64.47-.87-4.16-5.75-9.94-10.06-9.94h-89.5v86Z"/>
      <polygon class="cls-1" points="387 429 387 452 265 452 265 477 362 477 362 496 265 496 265 538 387 538 387 561 234 561 234 429 387 429"/>
      <polygon class="cls-1" points="1091 429 1091 452 969 452 969 477 1066 477 1066 496 969 496 969 538 1091 538 1091 561 938 561 938 429 1091 429"/>
      <path class="cls-1" d="M591,429v101.5c0,2.43,7.34,8.33,10.5,7.5,24.14-1.69,51.27,2.25,75.04.04,4.36-.41,11.46-3.46,11.46-8.54v-100.5h31v108.5c0,13.91-14.11,22.65-26.46,23.54-35.16,2.54-73.45-1.9-108.94-.15-10.7-.45-23.61-11.44-23.61-22.39v-109.5h31Z"/>
      <polygon class="cls-1" points="917 429 845.07 494.36 920 561 884.5 561 825.5 510.96 767.5 561 731 561 805.98 495.5 732 429 767.5 429 824.55 478.05 827.55 477.05 881.5 429 917 429"/>
      <polygon class="cls-1" points="441 429 441 538 548 538 548 561 410 561 410 429 441 429"/>
      <path class="cls-1" d="M558.02,306.04c-.87.01-1.73.01-2.6.01h-.54c.78-.56,1.39-1.28,1.82-2.08.29.76.73,1.47,1.32,2.07Z"/>
      <path class="cls-1" d="M561.92,381.9v6.48c0,3.31-2.69,6-6,6s-6-2.69-6-6v-6.48c1.9-.41,3.91-.63,6-.63s4.1.22,6,.63Z"/>
      <path class="cls-1" d="M576.09,395.39c0,7.8-9.03,14.13-20.17,14.13s-20.17-6.33-20.17-14.13c0-6.34,5.96-11.7,14.17-13.49,1.9-.41,3.91-.63,6-.63s4.1.22,6,.63c8.21,1.79,14.17,7.15,14.17,13.49Z"/>
      <path class="cls-1" d="M754.54,291.15c-5.03,0-9.64.89-13.19,2.37l-59.46-.23c22.64-5.67,36.46-12.67,36.46-19.86,0-8.5-18.13-16.19-47.35-21.7v1.64c23.01,4.15,37.36,9.2,39.22,13.65,6.31,14.91-66.68,26.18-148.92,26.18s-154.18-12.71-148.92-26.18c1.67-4.26,12.7-8.66,30.62-12.39-.01-.54,0-1.09,0-1.63-25.46,5.4-40.97,12.57-40.97,20.43,0,6.9,11.12,13.63,30.26,19.17l-59.93.23c-3.55-1.47-8.16-2.36-13.19-2.36-11.22,0-20.32,4.42-20.32,9.88s9.1,9.88,20.32,9.88c7.91,0,14.76-2.2,18.12-5.42l29.95-.11c-7.52,1.44-12.84,5.01-12.84,9.18,0,5.46,9.1,9.88,20.32,9.88,8.29,0,15.41-2.41,18.58-5.86,10.84-1.56,28.49-4.13,57.3-8.34l-97.92,35.4c-2.84-.73-6.08-1.15-9.51-1.15-11.22,0-20.32,4.43-20.32,9.88s9.1,9.88,20.32,9.88,20.19-4.36,20.31-9.76l126.7-45.8,3.46-2.29c.86.03,1.72.06,2.59.08-.15.07-.3.13-.46.19l-5.59,2.02-36.92,24.4c-.46-.02-.94-.03-1.41-.03-10.37,0-18.78,5.02-18.78,11.22s8.41,11.22,18.78,11.22,18.79-5.02,18.79-11.22c0-2.3-1.16-4.44-3.15-6.21l42.43-28.04v72.55c1.9-.41,3.91-.63,6-.63s4.1.22,6,.63v-73.11l44.3,29.28c-1.99,1.77-3.15,3.92-3.15,6.22,0,6.19,8.41,11.22,18.79,11.22s18.78-5.03,18.78-11.22-8.41-11.23-18.78-11.23c-.47,0-.95.01-1.41.03l-36.92-24.4-5.59-2.02c-.61-.22-1.16-.53-1.65-.91.89-.03,1.78-.05,2.67-.09l4.57,3.02,126.7,45.81c.12,5.39,9.17,9.75,20.31,9.75s20.32-4.42,20.32-9.87-9.1-9.88-20.32-9.88c-3.43,0-6.66.41-9.5,1.14h-.01l-97.92-35.4c28.83,4.22,46.48,6.78,57.32,8.35,3.16,3.45,10.28,5.85,18.56,5.85,11.22,0,20.32-4.42,20.32-9.87,0-4.17-5.31-7.74-12.82-9.18l29.93.11c3.36,3.21,10.21,5.41,18.12,5.41,11.22,0,20.32-4.42,20.32-9.88s-9.1-9.88-20.32-9.88ZM428.25,306.51h-.01c-1.84-.8-3.98-1.44-6.34-1.87l19.79-.08c-5.02.73-9.57,1.39-13.44,1.95ZM555.42,306.06h-.54c.78-.56,1.39-1.28,1.82-2.08.29.76.73,1.47,1.32,2.07-.87.01-1.73.01-2.6.01ZM685.45,307.2h-.01c-3.87-.56-8.41-1.22-13.42-1.95l19.78.08c-2.36.43-4.51,1.07-6.35,1.87ZM691.81,305.33c2.23-.41,4.65-.64,7.18-.64s5.16.25,7.48.7l-14.66-.06Z"/>
      <path class="cls-1" d="M536.23,305.79c-.15.07-.3.13-.46.19l-5.59,2.02,3.46-2.29c.86.03,1.72.06,2.59.08Z"/>
      <path class="cls-1" d="M536.23,305.79c-.15.07-.3.13-.46.19l-5.59,2.02,3.46-2.29c.86.03,1.72.06,2.59.08Z"/>
      <path class="cls-1" d="M706.47,305.39l-14.66-.06c2.23-.41,4.65-.64,7.18-.64s5.16.25,7.48.7Z"/>
      <path class="cls-1" d="M583.53,308.69l-5.59-2.02c-.61-.22-1.16-.53-1.65-.91.89-.03,1.78-.05,2.67-.09l4.57,3.02Z"/>
      <path class="cls-1" d="M583.53,308.69l-5.59-2.02c-.61-.22-1.16-.53-1.65-.91.89-.03,1.78-.05,2.67-.09l4.57,3.02Z"/>
      <path class="cls-1" d="M706.47,305.39l-14.66-.06c2.23-.41,4.65-.64,7.18-.64s5.16.25,7.48.7Z"/>
      <path class="cls-1" d="M499.01,245.36c-12.19.99-23.6,2.26-34.01,3.77v1.74c10.19-1.42,21.6-2.65,34.01-3.62,0-.08-.01-.17-.01-.25-.02-.54.01-1.09.01-1.64ZM647.56,248.07c-3.74-.48-7.6-.93-11.56-1.34-14.45-1.53-30.26-2.63-47-3.22-9.34-.34-18.97-.51-28.81-.51-7.53,0-14.94.1-22.19.3-4.39.12-8.73.27-13,.46-4.06.17-8.06.38-12,.62-4.76.29-9.43.61-13.99.98-12.19.99-23.6,2.26-34.01,3.77-7.95,1.15-15.32,2.45-22,3.87,0,.54-.01,1.09,0,1.63,6.48-1.35,13.85-2.61,22-3.76,10.19-1.42,21.6-2.65,34.01-3.62,4.53-.35,9.2-.67,13.99-.95,3.92-.23,7.92-.43,12-.61,4.25-.18,8.59-.33,13-.45,7.56-.2,15.34-.31,23.3-.31,9.52,0,18.77.17,27.7.48,16.97.58,32.78,1.69,47,3.15,3.98.41,7.83.84,11.55,1.3,8.56,1.06,16.41,2.24,23.45,3.51v-1.64c-7.18-1.36-15.03-2.59-23.44-3.66ZM556.7,303.98c-.43.8-1.04,1.52-1.82,2.08h.54c.87,0,1.73,0,2.6-.01-.59-.6-1.03-1.31-1.32-2.07ZM499.01,245.36c-12.19.99-23.6,2.26-34.01,3.77v1.74c10.19-1.42,21.6-2.65,34.01-3.62,0-.08-.01-.17-.01-.25-.02-.54.01-1.09.01-1.64Z"/>
      <path class="cls-1" d="M528,0l47.01,27.49c1.03.77.91,1.85,1.04,2.96,1.81,15-1.29,33.94-.27,49.35l-37.83,21.87c-.1,46.77.28,93.57.04,140.33,0,1,0,2,0,3-.03,9.32.02,18.68,0,28.01h-13.01c-.01-8.99.03-18.02,0-27.01,0-1,0-2,0-3-.2-80.98.15-162.02,0-243h3Z"/>
      <path class="cls-1" d="M589,242c-.26-51.08.21-102.21-.02-153.29l47.02-27.71v212h-47c-.02-9.32.03-18.68,0-28,0-1,0-2,0-3Z"/>
      <path class="cls-1" d="M513,243v3.3c-.03,8.89.01,17.82,0,26.71h-13.01c-.65-8.56-.6-17.19-.98-25.76,0-.08-.01-.17-.01-.25-.02-.54.01-1.09.01-1.64,0-.12,0-.24-.01-.36-.59-13.01-1.14-26.07-2.49-39.01l-31.51-14.98c-.06,18.98.06,38.01,0,56.99v3c-.04,7.32.02,14.69,0,22h-22c-.03-5.98.04-12.01,0-18v-.37c-.01-.54,0-1.09,0-1.63-.09-16.41-.12-32.87.2-49.29l21.82-16.41.17-78.6,46.3-28.71,1.51,1.5c-.1,53.83.13,107.69,0,161.51Z"/>
      <path class="cls-1" d="M671,251v2.37c-.04,6.54.02,13.1,0,19.63h-21.5c-.99-.62-1.3-1.38-1.5-2.5-.8-4.36-.49-14.29-.45-20.64.01-.64.01-1.23.01-1.79v-.57c-.23-26.62,1.13-53.39.38-80.05-.03-1.17.15-2.13,1.03-2.98.86-.83,21.2-9.32,22.02-8.46-.09,31.65.14,63.35.01,94.99Z"/>
    </g>
  </g>
</svg>